<svg xmlns="http://www.w3.org/2000/svg" width="26" height="26" viewBox="0 0 26 26"><defs><style>.a,.b{fill:none;}.a{stroke:#222;stroke-linecap:round;stroke-linejoin:round;stroke-width:1.6px;}</style></defs><g transform="translate(-333 -71)"><path class="a" d="M3357.285,497.311h-4.2a2.456,2.456,0,0,1-2.437-2.474V486.58a2.487,2.487,0,0,1,.837-1.865l5.687-4.921a2.409,2.409,0,0,1,2.883-.007l5.747,4.927a2.492,2.492,0,0,1,.846,1.874v8.249a2.455,2.455,0,0,1-2.437,2.474h-2.9v-4.385a2.456,2.456,0,0,0-2.437-2.474h-.575" transform="translate(-3012.146 -404.311)"/><g transform="translate(317)"><rect class="b" width="26" height="26" transform="translate(16 71)"/></g></g></svg>