<svg xmlns="http://www.w3.org/2000/svg" width="26" height="26" viewBox="0 0 26 26"><defs><style>.a,.b{fill:none;}.b{stroke:#222;stroke-linecap:round;stroke-linejoin:round;stroke-width:1.6px;}</style></defs><g transform="translate(-333 -124)"><g transform="translate(0 53)"><g transform="translate(317)"><rect class="a" width="26" height="26" transform="translate(16 71)"/></g></g><g transform="translate(-3499.548 -734.521)"><circle class="b" cx="3" cy="3" r="3" transform="translate(3842.548 868.522)"/><path class="b" d="M3852.275,874.249a1.5,1.5,0,0,0,.3,1.655l.054.055a1.819,1.819,0,0,1,0,2.572h0a1.818,1.818,0,0,1-2.572,0v0l-.055-.055a1.512,1.512,0,0,0-2.564,1.073v.155a1.818,1.818,0,1,1-3.636,0v-.082a1.574,1.574,0,0,0-2.636-1.073l-.055.055a1.818,1.818,0,0,1-2.572,0v0a1.818,1.818,0,0,1,0-2.571l0,0,.055-.055a1.512,1.512,0,0,0-1.073-2.564h-.154a1.818,1.818,0,1,1,0-3.636h.082a1.574,1.574,0,0,0,1.073-2.636l-.055-.055a1.817,1.817,0,0,1,0-2.571v0a1.818,1.818,0,0,1,2.571,0h0l.055.055a1.5,1.5,0,0,0,1.654.3h.073a1.5,1.5,0,0,0,.909-1.373v-.155a1.818,1.818,0,0,1,3.637,0v.082a1.512,1.512,0,0,0,2.563,1.073l.054-.055a1.818,1.818,0,0,1,2.571,0h0a1.819,1.819,0,0,1,0,2.572h0l-.055.055a1.5,1.5,0,0,0-.3,1.655v.073a1.5,1.5,0,0,0,1.373.909h.154a1.818,1.818,0,1,1,0,3.636h-.082A1.5,1.5,0,0,0,3852.275,874.249Z" transform="translate(0 0)"/></g></g></svg>